<mxfile host="app.diagrams.net" modified="2024-03-14T10:05:06.630Z" agent="Mozilla/5.0 (Windows NT 10.0; Win64; x64) AppleWebKit/537.36 (KHTML, like Gecko) Chrome/122.0.0.0 Safari/537.36" version="24.0.6" etag="O2xxfdlJBECyk3xesvOi" type="github">
  <diagram name="페이지-1" id="awA_Vv66sDzCJ9DS8QxC">
    <mxGraphModel>
      <root>
        <mxCell id="0" />
        <mxCell id="1" parent="0" />
      </root>
    </mxGraphModel>
  </diagram>
</mxfile>
